<svg width="74" height="89" viewBox="0 0 74 89" fill="none" xmlns="http://www.w3.org/2000/svg">
<path d="M33.1439 74.7473L3.53902 22.5798C4.47284 18.6431 6.91656 14.8241 10.1592 11.6072M33.1439 74.7473L52.0083 80.1143M33.1439 74.7473C34.0023 69.2866 36.9584 63.5739 41.1253 58.552M67.2663 43.5849L29.4959 2.77417C26.4409 2.71454 23.1634 3.49331 19.9931 4.88584M67.2663 43.5849L69.0696 64.5331M67.2663 43.5849C62.6948 43.8053 57.977 45.4272 53.5564 47.9793M52.0083 80.1143L70.8728 85.4813L69.0696 64.5331M52.0083 80.1143C52.0083 80.1143 54.3421 74.7465 58.6563 70.8065C62.9706 66.8665 69.0696 64.5331 69.0696 64.5331M53.5564 47.9793L19.9931 4.88584M53.5564 47.9793C48.9137 50.6596 44.5988 54.3658 41.1253 58.552M19.9931 4.88584C16.4219 6.45448 12.9868 8.80195 10.1592 11.6072M41.1253 58.552L10.1592 11.6072" stroke="#FE9683" stroke-width="5"/>
</svg>
