<svg width="113" height="70" viewBox="0 0 113 70" fill="none" xmlns="http://www.w3.org/2000/svg">
<path d="M8.7026 47.1094C17.6384 56.059 35.6835 60.5244 60.9241 56.6286C94.5418 51.4399 116.485 31.3252 107.861 14.3578C101.206 1.26418 74.5837 1.19954 51.0583 6.81059M8.7026 47.1094C5.73694 44.1391 3.77463 40.675 2.88563 36.8586C-0.066175 24.187 15.6877 7.10046 51.0583 6.81059M8.7026 47.1094C4.42279 35.098 12.4776 21.1784 31.5882 13.0909C37.4089 10.6276 44.098 8.47068 51.0583 6.81059M8.7026 47.1094C10.1322 51.1216 12.9381 54.9209 17.1679 58.2188C29.7119 67.9991 59.7209 70.5001 86.4605 59.8938M51.0583 6.81059C58.4377 6.75011 66.671 7.42074 75.7664 9.01511" stroke="#D1B7FF" stroke-width="5"/>
</svg>
