<svg width="291" height="291" viewBox="0 0 291 291" fill="none" xmlns="http://www.w3.org/2000/svg">
<path opacity="0.07" d="M144.997 72.8733L138.857 11.6083M171.692 59.5596L184.416 30.4366M152.539 209.767L161.575 289.35M124.833 231.012L114.671 262.835M221.395 121.115L279.246 102.81M69.9182 105.47L12.1095 66.4531M41.4098 114.77L12.1473 111.748M74.5171 178.82L16.6931 210.59M219.767 181.752L259.652 204.046M148.029 113.537L196.554 85.5033L176.834 135.018L228.919 153.286L173.59 160.459L182.456 196.073L144.658 173.994L100.083 214.333L111.491 161.977L37.7937 143.129L104.311 127.528L98.1486 77.9833L148.029 113.537Z" stroke="#D1B7FF" stroke-width="23" stroke-linecap="round" stroke-linejoin="round"/>
</svg>
