<svg width="177" height="48" viewBox="0 0 177 48" fill="none" xmlns="http://www.w3.org/2000/svg">
<mask id="mask0_2001_42" style="mask-type:luminance" maskUnits="userSpaceOnUse" x="0" y="0" width="177" height="48">
<path d="M177 0H0V48H177V0Z" fill="white"/>
</mask>
<g mask="url(#mask0_2001_42)">
<path d="M37.8819 0H9.79705C4.3863 0 0 4.41584 0 9.86301V38.137C0 43.5843 4.3863 48 9.79705 48H37.8819C43.2928 48 47.679 43.5843 47.679 38.137V9.86301C47.679 4.41584 43.2928 0 37.8819 0Z" fill="#2E2E2E"/>
<path d="M19.4698 19.9072C19.3956 19.1538 19.0771 18.5685 18.5142 18.1513C17.9514 17.7341 17.1875 17.5255 16.2227 17.5255C15.5671 17.5255 15.0135 17.6189 14.562 17.8057C14.1105 17.9863 13.7641 18.2385 13.5229 18.5623C13.2879 18.8861 13.1704 19.2534 13.1704 19.6644C13.158 20.0069 13.2291 20.3057 13.3838 20.561C13.5446 20.8163 13.7641 21.0373 14.0425 21.2242C14.3208 21.4047 14.6424 21.5635 15.0073 21.7005C15.3722 21.8313 15.7619 21.9433 16.1763 22.0367L17.8834 22.4477C18.7121 22.6345 19.4729 22.8836 20.1656 23.1949C20.8583 23.5062 21.4583 23.8892 21.9655 24.3437C22.4726 24.7982 22.8654 25.3337 23.1437 25.9502C23.4282 26.5666 23.5736 27.2733 23.5797 28.0704C23.5736 29.241 23.2767 30.2559 22.6891 31.1152C22.1077 31.9682 21.2665 32.6314 20.1656 33.1045C19.0709 33.5717 17.7504 33.8052 16.2041 33.8052C14.6702 33.8052 13.3343 33.5684 12.1962 33.0953C11.0644 32.6221 10.1799 31.9215 9.54287 30.9938C8.91201 30.0598 8.5811 28.9047 8.55017 27.5287H12.4374C12.4807 28.17 12.6632 28.7055 12.9848 29.1351C13.3126 29.5585 13.7487 29.8792 14.2929 30.0972C14.8434 30.3088 15.465 30.4147 16.1577 30.4147C16.8381 30.4147 17.4287 30.3151 17.9297 30.1158C18.4369 29.9166 18.8297 29.6395 19.108 29.2846C19.3863 28.9296 19.5255 28.5218 19.5255 28.061C19.5255 27.6314 19.3987 27.2702 19.1451 26.9776C18.8977 26.6849 18.5328 26.4359 18.0503 26.2304C17.5741 26.0249 16.9896 25.8381 16.2969 25.67L14.228 25.1469C12.6261 24.7547 11.3613 24.1413 10.4335 23.307C9.50577 22.4726 9.04499 21.3487 9.05116 19.9353C9.04499 18.7771 9.35114 17.7653 9.96963 16.8997C10.5943 16.0342 11.4509 15.3587 12.5395 14.873C13.6281 14.3873 14.8651 14.1445 16.2505 14.1445C17.6607 14.1445 18.8915 14.3873 19.943 14.873C21.0006 15.3587 21.8232 16.0342 22.4108 16.8997C22.9983 17.7653 23.3014 18.7677 23.32 19.9072H19.4698ZM33.8893 14.406H37.86V27.7435C37.86 28.9764 37.5847 30.0473 37.0345 30.9564C36.4901 31.8655 35.7324 32.566 34.7616 33.0579C33.7903 33.5497 32.6617 33.7956 31.3752 33.7956C30.2309 33.7956 29.1919 33.5934 28.2579 33.1887C27.3302 32.7777 26.5941 32.155 26.0499 31.3207C25.5056 30.4801 25.2365 29.4247 25.2427 28.1544H29.2413C29.2537 28.6588 29.3558 29.0915 29.5475 29.4527C29.7454 29.8076 30.0145 30.0816 30.3546 30.2746C30.701 30.4614 31.1092 30.5548 31.5793 30.5548C32.0741 30.5548 32.4915 30.4489 32.8319 30.2372C33.178 30.0193 33.4409 29.7017 33.6202 29.2846C33.7998 28.8674 33.8893 28.3537 33.8893 27.7435V14.406Z" fill="white"/>
<path d="M62.0783 20.2836C62.0117 19.6055 61.725 19.0788 61.2185 18.7033C60.712 18.3278 60.0245 18.1401 59.1562 18.1401C58.5661 18.1401 58.0677 18.2242 57.6615 18.3923C57.2552 18.5548 56.9434 18.7817 56.7262 19.0732C56.5146 19.3646 56.4091 19.6952 56.4091 20.0651C56.398 20.3733 56.462 20.6423 56.6011 20.872C56.7458 21.1018 56.9434 21.3008 57.1939 21.4689C57.4443 21.6314 57.7337 21.7743 58.0622 21.8976C58.3907 22.0153 58.7415 22.1161 59.1144 22.2002L60.6506 22.5701C61.3965 22.7382 62.0813 22.9623 62.7047 23.2425C63.3281 23.5227 63.8683 23.8674 64.3245 24.2765C64.781 24.6855 65.1344 25.1675 65.3848 25.7223C65.6409 26.2771 65.7718 26.9131 65.7774 27.6304C65.7718 28.684 65.5047 29.5975 64.976 30.3708C64.4525 31.1386 63.6955 31.7354 62.7047 32.1613C61.7194 32.5816 60.5311 32.7917 59.1392 32.7917C57.7588 32.7917 56.5564 32.5788 55.5323 32.1529C54.5137 31.7269 53.7175 31.0965 53.1441 30.2615C52.5765 29.4209 52.2787 28.3814 52.2509 27.1429H55.7494C55.7883 27.7201 55.9526 28.202 56.2419 28.5887C56.5371 28.9698 56.9293 29.2584 57.4192 29.4545C57.9146 29.6451 58.474 29.7403 59.0977 29.7403C59.7101 29.7403 60.2414 29.6507 60.6924 29.4713C61.1489 29.292 61.5023 29.0427 61.7527 28.7232C62.0032 28.4038 62.1286 28.0367 62.1286 27.622C62.1286 27.2354 62.0143 26.9103 61.7861 26.6469C61.5637 26.3836 61.2351 26.1594 60.8008 25.9745C60.3723 25.7895 59.8462 25.6214 59.2228 25.4701L57.3607 24.9994C55.9193 24.6463 54.7808 24.0943 53.9458 23.3434C53.1108 22.5925 52.696 21.5809 52.7016 20.3088C52.696 19.2665 52.9717 18.3559 53.5285 17.5769C54.0905 16.798 54.8615 16.1899 55.8412 15.7528C56.8209 15.3157 57.9342 15.0972 59.181 15.0972C60.4504 15.0972 61.5581 15.3157 62.5042 15.7528C63.4561 16.1899 64.1965 16.798 64.7252 17.5769C65.2542 18.3559 65.5269 19.2581 65.5435 20.2836H62.0783ZM68.2093 32.5479V15.3325H74.9559C76.253 15.3325 77.3578 15.5819 78.2706 16.0806C79.1837 16.5738 79.8796 17.2603 80.3583 18.1401C80.8423 19.0143 81.0846 20.023 81.0846 21.1663C81.0846 22.3095 80.8397 23.3182 80.3498 24.1924C79.86 25.0666 79.1503 25.7475 78.2206 26.2351C77.2967 26.7226 76.1776 26.9664 74.8641 26.9664H70.5639V24.0495H74.2796C74.9755 24.0495 75.5486 23.929 75.9996 23.688C76.4562 23.4415 76.7955 23.1024 77.0182 22.6709C77.2465 22.2338 77.3608 21.7323 77.3608 21.1663C77.3608 20.5946 77.2465 20.0959 77.0182 19.67C76.7955 19.2385 76.4562 18.905 75.9996 18.6697C75.5431 18.4287 74.9641 18.3082 74.2629 18.3082H71.8248V32.5479H68.2093ZM83.433 32.5479V15.3325H94.9556V18.3334H87.0484V22.4356H94.3629V25.4365H87.0484V29.547H94.9889V32.5479H83.433ZM100.778 32.5479H96.9032L102.807 15.3325H107.466L113.361 32.5479H109.486L105.203 19.2665H105.069L100.778 32.5479ZM100.535 25.7811H109.687V28.6224H100.535V25.7811ZM115.419 32.5479V15.3325H119.034V22.9231H119.26L125.413 15.3325H129.747L123.401 23.0408L129.822 32.5479H125.497L120.813 25.4701L119.034 27.6557V32.5479H115.419Z" fill="#2E2E2E"/>
<path d="M138.083 15.3325H141.656V27.3362C141.656 28.4458 141.409 29.4097 140.913 30.2279C140.423 31.0461 139.742 31.6765 138.867 32.1192C137.993 32.562 136.978 32.7833 135.82 32.7833C134.79 32.7833 133.855 32.6012 133.014 32.2369C132.179 31.8671 131.517 31.3067 131.027 30.5557C130.537 29.7992 130.295 28.8493 130.301 27.7061H133.899C133.91 28.16 134.002 28.5495 134.175 28.8745C134.353 29.194 134.595 29.4405 134.901 29.6143C135.213 29.7824 135.58 29.8665 136.004 29.8665C136.449 29.8665 136.825 29.7712 137.131 29.5806C137.442 29.3845 137.679 29.0987 137.841 28.7232C138.002 28.3477 138.083 27.8854 138.083 27.3362V15.3325ZM160.36 23.9402C160.36 25.8176 160.006 27.4147 159.299 28.7316C158.598 30.0486 157.64 31.0545 156.427 31.7494C155.219 32.4387 153.861 32.7833 152.352 32.7833C150.833 32.7833 149.469 32.4359 148.261 31.741C147.053 31.0461 146.099 30.0402 145.397 28.7232C144.696 27.4063 144.345 25.812 144.345 23.9402C144.345 22.0629 144.696 20.4658 145.397 19.1488C146.099 17.8319 147.053 16.8288 148.261 16.1395C149.469 15.4446 150.833 15.0972 152.352 15.0972C153.861 15.0972 155.219 15.4446 156.427 16.1395C157.64 16.8288 158.598 17.8319 159.299 19.1488C160.006 20.4658 160.36 22.0629 160.36 23.9402ZM156.694 23.9402C156.694 22.7242 156.513 21.6986 156.152 20.8636C155.795 20.0287 155.291 19.3954 154.64 18.9639C153.989 18.5324 153.226 18.3166 152.352 18.3166C151.478 18.3166 150.716 18.5324 150.064 18.9639C149.413 19.3954 148.907 20.0287 148.545 20.8636C148.189 21.6986 148.011 22.7242 148.011 23.9402C148.011 25.1563 148.189 26.1818 148.545 27.0168C148.907 27.8518 149.413 28.485 150.064 28.9165C150.716 29.3481 151.478 29.5638 152.352 29.5638C153.226 29.5638 153.989 29.3481 154.64 28.9165C155.291 28.485 155.795 27.8518 156.152 27.0168C156.513 26.1818 156.694 25.1563 156.694 23.9402ZM161.003 15.3325H165.052L168.952 22.7466H169.119L173.018 15.3325H177.068L170.83 26.462V32.5479H167.24V26.462L161.003 15.3325Z" fill="#FF5832"/>
</g>
</svg>
