<svg width="23" height="23" viewBox="0 0 23 23" fill="none" xmlns="http://www.w3.org/2000/svg">
<path d="M10.3022 12.4967C10.3022 11.9504 9.85175 11.5 9.3055 11.5C8.75925 11.5 8.30884 11.9504 8.30884 12.4967C8.30884 12.761 8.41384 13.0145 8.60076 13.2014C8.78767 13.3883 9.04117 13.4933 9.3055 13.4933C9.56984 13.4933 9.82334 13.3883 10.0103 13.2014C10.1972 13.0145 10.3022 12.761 10.3022 12.4967ZM13.503 14.7679C13.0718 15.1992 12.1518 15.3525 11.5001 15.3525C10.8484 15.3525 9.92842 15.1992 9.49717 14.7679C9.47386 14.743 9.44567 14.7231 9.41434 14.7095C9.38302 14.6959 9.34924 14.6888 9.31509 14.6888C9.28094 14.6888 9.24715 14.6959 9.21583 14.7095C9.18451 14.7231 9.15632 14.743 9.133 14.7679C9.10805 14.7912 9.08815 14.8194 9.07455 14.8507C9.06095 14.8821 9.05392 14.9159 9.05392 14.95C9.05392 14.9841 9.06095 15.0179 9.07455 15.0493C9.08815 15.0806 9.10805 15.1088 9.133 15.1321C9.81342 15.8125 11.1168 15.87 11.5001 15.87C11.8834 15.87 13.1868 15.8125 13.8672 15.1321C13.8921 15.1088 13.912 15.0806 13.9256 15.0493C13.9392 15.0179 13.9463 14.9841 13.9463 14.95C13.9463 14.9159 13.9392 14.8821 13.9256 14.8507C13.912 14.8194 13.8921 14.7912 13.8672 14.7679C13.7713 14.6721 13.6084 14.6721 13.503 14.7679ZM13.6947 11.5C13.1484 11.5 12.698 11.9504 12.698 12.4967C12.698 13.0429 13.1484 13.4933 13.6947 13.4933C14.2409 13.4933 14.6913 13.0429 14.6913 12.4967C14.6913 11.9504 14.2505 11.5 13.6947 11.5Z" fill="white"/>
<path d="M11.5001 1.91669C6.21008 1.91669 1.91675 6.21002 1.91675 11.5C1.91675 16.79 6.21008 21.0834 11.5001 21.0834C16.7901 21.0834 21.0834 16.79 21.0834 11.5C21.0834 6.21002 16.7901 1.91669 11.5001 1.91669ZM17.0584 12.7746C17.0776 12.9088 17.0872 13.0525 17.0872 13.1963C17.0872 15.3429 14.5859 17.0871 11.5001 17.0871C8.41425 17.0871 5.913 15.3429 5.913 13.1963C5.913 13.0525 5.92258 12.9088 5.94175 12.7746C5.453 12.5542 5.11758 12.0654 5.11758 11.5C5.11616 11.2252 5.19598 10.9561 5.347 10.7265C5.49802 10.4969 5.71352 10.3171 5.96643 10.2096C6.21934 10.1021 6.49838 10.0717 6.76849 10.1222C7.03861 10.1728 7.28777 10.3021 7.48466 10.4938C8.45258 9.79419 9.79425 9.35335 11.2797 9.30544L11.9888 5.96085C11.9984 5.89377 12.0367 5.83627 12.0942 5.80752C12.1517 5.76919 12.2188 5.7596 12.2859 5.76919L14.6051 6.26752C14.6837 6.10803 14.8036 5.9725 14.9523 5.87496C15.101 5.77743 15.2731 5.72146 15.4507 5.71286C15.6283 5.70425 15.805 5.74333 15.9625 5.82603C16.1199 5.90872 16.2523 6.03204 16.346 6.18317C16.4397 6.33431 16.4913 6.50776 16.4954 6.68555C16.4994 6.86333 16.4559 7.03896 16.3692 7.19422C16.2825 7.34949 16.1558 7.47873 16.0023 7.56855C15.8489 7.65837 15.6742 7.70549 15.4963 7.70502C14.9597 7.70502 14.5284 7.28335 14.4997 6.75627L12.4201 6.31544L11.7876 9.30544C13.2538 9.35335 14.5667 9.80377 15.5251 10.4938C15.672 10.3535 15.8478 10.247 16.0401 10.1817C16.2325 10.1165 16.4368 10.0941 16.6388 10.116C16.8407 10.138 17.0354 10.2038 17.2093 10.3088C17.3831 10.4139 17.5319 10.5557 17.6452 10.7243C17.7586 10.8929 17.8337 11.0842 17.8654 11.2848C17.8971 11.4855 17.8845 11.6906 17.8286 11.8859C17.7727 12.0812 17.6748 12.2619 17.5418 12.4154C17.4087 12.5689 17.2438 12.6915 17.0584 12.7746Z" fill="white"/>
</svg>
