<svg width="21" height="21" viewBox="0 0 21 21" fill="none" xmlns="http://www.w3.org/2000/svg">
<path d="M11.4851 0.916687C12.5632 0.919562 13.1104 0.925312 13.5829 0.938729L13.7688 0.945437C13.9834 0.953104 14.1952 0.962687 14.4511 0.974187C15.4708 1.0221 16.1665 1.1831 16.777 1.41981C17.4095 1.66323 17.9423 1.9929 18.4751 2.52477C18.9626 3.00368 19.3397 3.58322 19.5801 4.22294C19.8168 4.8334 19.9778 5.52915 20.0257 6.54977C20.0372 6.80469 20.0468 7.01648 20.0545 7.2321L20.0602 7.41802C20.0746 7.88952 20.0804 8.43673 20.0823 9.51485L20.0832 10.2298V11.4852C20.0856 12.1842 20.0782 12.8832 20.0612 13.582L20.0554 13.7679C20.0478 13.9836 20.0382 14.1954 20.0267 14.4503C19.9788 15.4709 19.8159 16.1657 19.5801 16.7771C19.3397 17.4168 18.9626 17.9964 18.4751 18.4753C17.9962 18.9628 17.4167 19.3399 16.777 19.5802C16.1665 19.8169 15.4708 19.9779 14.4511 20.0259L13.7688 20.0546L13.5829 20.0604C13.1104 20.0738 12.5632 20.0805 11.4851 20.0824L10.7701 20.0834H9.51569C8.81635 20.0858 8.11702 20.0785 7.41789 20.0613L7.23198 20.0556C7.00448 20.0469 6.77703 20.037 6.54964 20.0259C5.52998 19.9779 4.83423 19.8169 4.22281 19.5802C3.58344 19.3397 3.00424 18.9627 2.5256 18.4753C2.03776 17.9965 1.66033 17.4169 1.41969 16.7771C1.18298 16.1666 1.02198 15.4709 0.974061 14.4503L0.945311 13.7679L0.940519 13.582C0.922853 12.8832 0.914866 12.1842 0.916561 11.4852V9.51485C0.913908 8.81585 0.920937 8.11683 0.937644 7.41802L0.944352 7.2321C0.952019 7.01648 0.961602 6.80469 0.973102 6.54977C1.02102 5.52915 1.18202 4.83435 1.41873 4.22294C1.65993 3.58296 2.03802 3.0034 2.52656 2.52477C3.00492 2.0375 3.58378 1.66042 4.22281 1.41981C4.83423 1.1831 5.52902 1.0221 6.54964 0.974187C6.80456 0.962687 7.01731 0.953104 7.23198 0.945437L7.41789 0.939687C8.1167 0.92266 8.81571 0.915312 9.51473 0.917645L11.4851 0.916687ZM10.4999 5.70835C9.22906 5.70835 8.01029 6.21319 7.11167 7.1118C6.21306 8.01041 5.70823 9.22919 5.70823 10.5C5.70823 11.7709 6.21306 12.9896 7.11167 13.8882C8.01029 14.7869 9.22906 15.2917 10.4999 15.2917C11.7707 15.2917 12.9895 14.7869 13.8881 13.8882C14.7867 12.9896 15.2916 11.7709 15.2916 10.5C15.2916 9.22919 14.7867 8.01041 13.8881 7.1118C12.9895 6.21319 11.7707 5.70835 10.4999 5.70835ZM10.4999 7.62502C10.8774 7.62496 11.2513 7.69926 11.6001 7.84368C11.949 7.98811 12.266 8.19983 12.533 8.46675C12.8 8.73367 13.0118 9.05058 13.1563 9.39936C13.3009 9.74815 13.3753 10.122 13.3754 10.4995C13.3754 10.8771 13.3011 11.251 13.1567 11.5998C13.0123 11.9486 12.8006 12.2656 12.5336 12.5326C12.2667 12.7996 11.9498 13.0115 11.601 13.156C11.2522 13.3005 10.8784 13.375 10.5009 13.375C9.73836 13.375 9.00709 13.0721 8.46792 12.533C7.92875 11.9938 7.62585 11.2625 7.62585 10.5C7.62585 9.73752 7.92875 9.00626 8.46792 8.46709C9.00709 7.92792 9.73836 7.62502 10.5009 7.62502M15.5321 4.27085C15.2144 4.27085 14.9097 4.39706 14.685 4.62172C14.4604 4.84637 14.3342 5.15106 14.3342 5.46877C14.3342 5.78648 14.4604 6.09117 14.685 6.31583C14.9097 6.54048 15.2144 6.66669 15.5321 6.66669C15.8498 6.66669 16.1545 6.54048 16.3792 6.31583C16.6038 6.09117 16.73 5.78648 16.73 5.46877C16.73 5.15106 16.6038 4.84637 16.3792 4.62172C16.1545 4.39706 15.8498 4.27085 15.5321 4.27085Z" fill="white"/>
</svg>
