<svg width="23" height="23" viewBox="0 0 23 23" fill="none" xmlns="http://www.w3.org/2000/svg">
<path d="M16.582 2.15625H6.41796C5.28768 2.15625 4.2037 2.60525 3.40448 3.40448C2.60525 4.2037 2.15625 5.28768 2.15625 6.41796V16.582C2.15625 17.7123 2.60525 18.7963 3.40448 19.5955C4.2037 20.3948 5.28768 20.8438 6.41796 20.8438H16.582C17.7123 20.8438 18.7963 20.3948 19.5955 19.5955C20.3948 18.7963 20.8438 17.7123 20.8438 16.582V6.41796C20.8438 5.28768 20.3948 4.2037 19.5955 3.40448C18.7963 2.60525 17.7123 2.15625 16.582 2.15625ZM8.47454 17.2423C8.47755 17.2945 8.46985 17.3467 8.45194 17.3958C8.43403 17.4449 8.40627 17.4898 8.37037 17.5278C8.33447 17.5657 8.29118 17.5959 8.24318 17.6166C8.19517 17.6372 8.14346 17.6478 8.09121 17.6477H6.38538C6.2825 17.6452 6.18472 17.6024 6.11304 17.5286C6.04136 17.4548 6.00151 17.3558 6.00204 17.2529V10.1583C6.00063 10.1071 6.00951 10.0561 6.02814 10.0084C6.04677 9.96067 6.07478 9.91716 6.11052 9.88043C6.14626 9.84372 6.18899 9.81453 6.2362 9.79461C6.28341 9.77469 6.33414 9.76444 6.38538 9.76446H8.09121C8.14245 9.76444 8.19317 9.77469 8.24038 9.79461C8.28759 9.81453 8.33033 9.84372 8.36606 9.88043C8.4018 9.91716 8.42981 9.96067 8.44844 10.0084C8.46708 10.0561 8.47595 10.1071 8.47454 10.1583V17.2423ZM7.20667 8.27233C7.02198 8.27095 6.83938 8.2332 6.66928 8.16125C6.49918 8.08929 6.34492 7.98454 6.21531 7.85297C6.0857 7.7214 5.98327 7.56558 5.91387 7.39443C5.84448 7.22327 5.80947 7.04012 5.81085 6.85544C5.81224 6.67075 5.84999 6.48815 5.92194 6.31805C5.9939 6.14795 6.09865 5.9937 6.23022 5.86408C6.36179 5.73447 6.5176 5.63204 6.68876 5.56264C6.85992 5.49325 7.04306 5.45824 7.22775 5.45963C7.59433 5.47155 7.94174 5.62625 8.19584 5.89074C8.44995 6.15522 8.59064 6.50854 8.58789 6.8753C8.58514 7.24206 8.43917 7.59323 8.18112 7.85387C7.92307 8.11452 7.57338 8.264 7.20667 8.27042M17.573 17.2308C17.5725 17.3277 17.5345 17.4205 17.4669 17.4899C17.3993 17.5593 17.3075 17.5997 17.2107 17.6027H15.41C15.313 17.5997 15.2211 17.5591 15.1535 17.4896C15.0859 17.42 15.048 17.3269 15.0477 17.2299V13.9485C15.0477 13.4588 15.1972 11.8182 13.7482 11.8182C12.6184 11.8182 12.3951 12.9682 12.352 13.4799V17.3046C12.352 17.4018 12.3142 17.4952 12.2466 17.5649C12.179 17.6347 12.0868 17.6754 11.9897 17.6784H10.2427C10.1437 17.6781 10.0489 17.6386 9.979 17.5686C9.90912 17.4985 9.86987 17.4036 9.86987 17.3046V10.1238C9.87286 10.0267 9.91356 9.93458 9.98333 9.86696C10.0531 9.79933 10.1465 9.76154 10.2436 9.76158H11.9897C12.0869 9.76154 12.1802 9.79933 12.25 9.86696C12.3198 9.93458 12.3605 10.0267 12.3635 10.1238V10.742C12.6184 10.3688 12.9704 10.0723 13.3815 9.88454C13.7925 9.69674 14.2471 9.62473 14.696 9.67629C17.6046 9.67629 17.594 12.3932 17.594 13.938L17.573 17.2308Z" fill="white"/>
</svg>
