<svg width="23" height="23" viewBox="0 0 23 23" fill="none" xmlns="http://www.w3.org/2000/svg">
<path d="M15.9082 5.5775C15.2533 4.82955 14.8923 3.86917 14.8924 2.875H11.9312V14.7583C11.9088 15.4016 11.6374 16.0109 11.1744 16.4579C10.7113 16.9049 10.0927 17.1546 9.44907 17.1542C8.08824 17.1542 6.95741 16.0425 6.95741 14.6625C6.95741 13.0142 8.54824 11.7779 10.187 12.2858V9.2575C6.88074 8.81667 3.98657 11.385 3.98657 14.6625C3.98657 17.8538 6.63157 20.125 9.43949 20.125C12.4487 20.125 14.8924 17.6812 14.8924 14.6625V8.63458C16.0932 9.49694 17.5349 9.95962 19.0132 9.95708V6.99583C19.0132 6.99583 17.2116 7.08208 15.9082 5.5775Z" fill="white"/>
</svg>
