<svg width="118" height="32" viewBox="0 0 118 32" fill="none" xmlns="http://www.w3.org/2000/svg">
<rect width="118" height="32" fill="#1E1E1E"/>
<g clip-path="url(#clip0_0_1)">
<rect width="393" height="11716" transform="translate(-202 -6946)" fill="#FAFAFA"/>
<g opacity="0.45">
<g clip-path="url(#clip1_0_1)">
<mask id="mask0_0_1" style="mask-type:luminance" maskUnits="userSpaceOnUse" x="0" y="0" width="118" height="32">
<path d="M118 0L0 0L0 32H118V0Z" fill="white"/>
</mask>
<g mask="url(#mask0_0_1)">
<path d="M25.2546 0L6.53137 0C2.9242 0 0 2.94389 0 6.57534L0 25.4247C0 29.0562 2.9242 32 6.53137 32H25.2546C28.8619 32 31.786 29.0562 31.786 25.4247V6.57534C31.786 2.94389 28.8619 0 25.2546 0Z" fill="#2E2E2E"/>
<path d="M12.9799 13.2715C12.9305 12.7693 12.7181 12.3791 12.3429 12.1009C11.9677 11.8228 11.4584 11.6837 10.8152 11.6837C10.3781 11.6837 10.0091 11.746 9.70808 11.8705C9.40707 11.9909 9.17617 12.159 9.01536 12.3749C8.85868 12.5908 8.78032 12.8357 8.78032 13.1096C8.77209 13.338 8.81951 13.5372 8.9226 13.7074C9.0298 13.8776 9.17617 14.025 9.36172 14.1495C9.54728 14.2699 9.76168 14.3757 10.005 14.4671C10.2482 14.5542 10.508 14.6289 10.7843 14.6912L11.9223 14.9652C12.4748 15.0897 12.982 15.2558 13.4438 15.4633C13.9056 15.6709 14.3056 15.9262 14.6437 16.2292C14.9818 16.5322 15.2437 16.8892 15.4292 17.3002C15.6189 17.7111 15.7158 18.1823 15.7199 18.7136C15.7158 19.494 15.5179 20.1707 15.1262 20.7435C14.7386 21.3122 14.1778 21.7543 13.4438 22.0698C12.714 22.3812 11.8337 22.5368 10.8028 22.5368C9.78023 22.5368 8.88959 22.379 8.13091 22.0636C7.37634 21.7481 6.78669 21.2811 6.362 20.6626C5.94142 20.0399 5.72081 19.2699 5.7002 18.3525H8.29171C8.32058 18.78 8.44221 19.137 8.65664 19.4235C8.87518 19.7057 9.16587 19.9195 9.52871 20.0648C9.8957 20.206 10.3101 20.2765 10.7719 20.2765C11.2255 20.2765 11.6192 20.2101 11.9532 20.0773C12.2913 19.9444 12.5532 19.7597 12.7387 19.5231C12.9243 19.2865 13.0171 19.0146 13.0171 18.7074C13.0171 18.421 12.9325 18.1802 12.7635 17.9851C12.5985 17.79 12.3553 17.624 12.0336 17.487C11.7161 17.35 11.3265 17.2255 10.8647 17.1134L9.48543 16.7647C8.41748 16.5032 7.57426 16.0943 6.95576 15.538C6.33726 14.9818 6.03007 14.2325 6.03419 13.2902C6.03007 12.5181 6.23418 11.8436 6.6465 11.2666C7.06296 10.6895 7.63405 10.2392 8.35975 9.91536C9.08547 9.59159 9.91012 9.42969 10.8338 9.42969C11.7739 9.42969 12.5944 9.59159 13.2954 9.91536C14.0005 10.2392 14.5489 10.6895 14.9406 11.2666C15.3323 11.8436 15.5344 12.5119 15.5467 13.2715H12.9799ZM22.5929 9.60404H25.2401V18.4957C25.2401 19.3176 25.0566 20.0316 24.6897 20.6377C24.3268 21.2437 23.8217 21.7107 23.1744 22.0386C22.527 22.3665 21.7746 22.5305 20.9169 22.5305C20.154 22.5305 19.4613 22.3957 18.8387 22.1259C18.2202 21.8519 17.7295 21.4367 17.3667 20.8805C17.0038 20.3201 16.8244 19.6165 16.8286 18.7697H19.4943C19.5026 19.1059 19.5706 19.3944 19.6984 19.6352C19.8304 19.8718 20.0097 20.0544 20.2365 20.1831C20.4674 20.3076 20.7396 20.3699 21.0529 20.3699C21.3828 20.3699 21.6611 20.2993 21.888 20.1582C22.1188 20.0129 22.294 19.8012 22.4135 19.5231C22.5333 19.245 22.5929 18.9025 22.5929 18.4957V9.60404Z" fill="white"/>
<path d="M41.3856 13.5226C41.3412 13.0705 41.15 12.7193 40.8124 12.469C40.4747 12.2187 40.0164 12.0936 39.4375 12.0936C39.0441 12.0936 38.7119 12.1496 38.441 12.2617C38.1702 12.37 37.9623 12.5213 37.8175 12.7156C37.6764 12.9099 37.6061 13.1303 37.6061 13.3769C37.5987 13.5824 37.6414 13.7617 37.7341 13.9149C37.8306 14.0681 37.9623 14.2007 38.1293 14.3127C38.2963 14.4211 38.4892 14.5164 38.7082 14.5986C38.9272 14.677 39.161 14.7443 39.4096 14.8003L40.4338 15.0469C40.931 15.1589 41.3876 15.3084 41.8032 15.4952C42.2188 15.682 42.5789 15.9118 42.883 16.1845C43.1874 16.4572 43.4229 16.7785 43.5899 17.1484C43.7606 17.5182 43.8479 17.9423 43.8516 18.4205C43.8479 19.1228 43.6698 19.7318 43.3174 20.2474C42.9684 20.7592 42.4637 21.1571 41.8032 21.441C41.1463 21.7212 40.3541 21.8613 39.4262 21.8613C38.5059 21.8613 37.7043 21.7194 37.0216 21.4354C36.3425 21.1515 35.8117 20.7312 35.4294 20.1745C35.051 19.6141 34.8525 18.9211 34.834 18.0955H37.1663C37.1922 18.4802 37.3018 18.8015 37.4946 19.0593C37.6915 19.3134 37.9529 19.5058 38.2795 19.6365C38.6098 19.7636 38.9827 19.8271 39.3985 19.8271C39.8067 19.8271 40.161 19.7673 40.4616 19.6477C40.766 19.5282 41.0016 19.3619 41.1685 19.149C41.3355 18.936 41.4191 18.6913 41.4191 18.4149C41.4191 18.1571 41.3429 17.9404 41.1907 17.7648C41.0425 17.5892 40.8235 17.4398 40.5339 17.3165C40.2483 17.1932 39.8975 17.0811 39.4819 16.9803L38.2405 16.6664C37.2795 16.4311 36.5206 16.0631 35.9639 15.5624C35.4072 15.0618 35.1307 14.3875 35.1344 13.5394C35.1307 12.8445 35.3145 12.2374 35.6857 11.7181C36.0604 11.1988 36.5744 10.7934 37.2275 10.502C37.8806 10.2106 38.6228 10.0649 39.4541 10.0649C40.3003 10.0649 41.0388 10.2106 41.6695 10.502C42.3041 10.7934 42.7977 11.1988 43.1502 11.7181C43.5028 12.2374 43.6846 12.8389 43.6957 13.5226H41.3856ZM45.4729 21.6988V10.2219H49.9706C50.8354 10.2219 51.5719 10.3881 52.1804 10.7206C52.7891 11.0494 53.2531 11.507 53.5723 12.0936C53.8949 12.6764 54.0564 13.3489 54.0564 14.111C54.0564 14.8732 53.8932 15.5456 53.5666 16.1284C53.24 16.7113 52.7669 17.1652 52.1471 17.4902C51.5312 17.8152 50.7851 17.9778 49.9095 17.9778H47.0426V16.0332H49.5198C49.9837 16.0332 50.3658 15.9529 50.6664 15.7922C50.9708 15.6278 51.197 15.4018 51.3455 15.1141C51.4977 14.8227 51.5739 14.4883 51.5739 14.111C51.5739 13.7299 51.4977 13.3974 51.3455 13.1135C51.197 12.8258 50.9708 12.6035 50.6664 12.4466C50.3621 12.286 49.9761 12.2057 49.5087 12.2057H47.8832V21.6988H45.4729ZM55.622 21.6988V10.2219H63.3038V12.2225H58.0323V14.9572H62.9086V16.9578H58.0323V19.6982H63.326V21.6988H55.622ZM67.1851 21.6988H64.6022L68.5378 10.2219H71.6439L75.5738 21.6988H72.9909L70.1354 12.8445H70.0463L67.1851 21.6988ZM67.0236 17.1876H73.1246V19.0818H67.0236V17.1876ZM76.9458 21.6988V10.2219H79.3561V15.2822H79.5066L83.6089 10.2219H86.498L82.2676 15.3607L86.548 21.6988H83.6646L80.5418 16.9803L79.3561 18.4373V21.6988H76.9458Z" fill="#2E2E2E"/>
<path d="M92.0551 10.2219H94.4375V18.2243C94.4375 18.9641 94.2725 19.6066 93.9423 20.1521C93.6157 20.6976 93.1611 21.1179 92.5783 21.413C91.9957 21.7081 91.3186 21.8557 90.5466 21.8557C89.8601 21.8557 89.2366 21.7343 88.6762 21.4915C88.1195 21.2449 87.678 20.8713 87.3514 20.3707C87.0249 19.8663 86.8633 19.2331 86.8673 18.4709H89.2662C89.2736 18.7735 89.335 19.0332 89.45 19.2499C89.5688 19.4628 89.7302 19.6272 89.9344 19.743C90.1421 19.8551 90.387 19.9111 90.6692 19.9111C90.9659 19.9111 91.2165 19.8476 91.4205 19.7206C91.6284 19.5898 91.786 19.3993 91.8938 19.149C92.0013 18.8987 92.0551 18.5905 92.0551 18.2243V10.2219ZM106.907 15.9603C106.907 17.2119 106.671 18.2766 106.2 19.1546C105.732 20.0325 105.094 20.7032 104.285 21.1664C103.479 21.6259 102.574 21.8557 101.568 21.8557C100.555 21.8557 99.6461 21.6241 98.8408 21.1608C98.0355 20.6976 97.3991 20.027 96.9314 19.149C96.4638 18.271 96.23 17.2082 96.23 15.9603C96.23 14.7088 96.4638 13.644 96.9314 12.766C97.3991 11.8881 98.0355 11.2194 98.8408 10.7598C99.6461 10.2966 100.555 10.0649 101.568 10.0649C102.574 10.0649 103.479 10.2966 104.285 10.7598C105.094 11.2194 105.732 11.8881 106.2 12.766C106.671 13.644 106.907 14.7088 106.907 15.9603ZM104.463 15.9603C104.463 15.1496 104.342 14.4659 104.101 13.9093C103.864 13.3526 103.528 12.9304 103.094 12.6428C102.659 12.3551 102.151 12.2113 101.568 12.2113C100.986 12.2113 100.477 12.3551 100.043 12.6428C99.6089 12.9304 99.2712 13.3526 99.03 13.9093C98.7924 14.4659 98.6738 15.1496 98.6738 15.9603C98.6738 16.771 98.7924 17.4547 99.03 18.0114C99.2712 18.568 99.6089 18.9902 100.043 19.2779C100.477 19.5655 100.986 19.7094 101.568 19.7094C102.151 19.7094 102.659 19.5655 103.094 19.2779C103.528 18.9902 103.864 18.568 104.101 18.0114C104.342 17.4547 104.463 16.771 104.463 15.9603ZM107.335 10.2219H110.035L112.635 15.1646H112.746L115.345 10.2219H118.045L113.887 17.6415V21.6988H111.493V17.6415L107.335 10.2219Z" fill="#FF5832"/>
</g>
</g>
</g>
<path fill-rule="evenodd" clip-rule="evenodd" d="M-162 -6946H-202V4730V4770H-162C-184.091 4770 -202 4752.09 -202 4730L-202 -6906C-202 -6928.09 -184.091 -6946 -162 -6946ZM151 -6946C173.091 -6946 191 -6928.09 191 -6906V-6946H151ZM191 4730C191 4752.09 173.091 4770 151 4770H191V4730Z" fill="black"/>
</g>
<defs>
<clipPath id="clip0_0_1">
<rect width="393" height="11716" fill="white" transform="translate(-202 -6946)"/>
</clipPath>
<clipPath id="clip1_0_1">
<rect width="118" height="32" fill="white"/>
</clipPath>
</defs>
</svg>
