<svg width="80" height="85" viewBox="0 0 80 85" fill="none" xmlns="http://www.w3.org/2000/svg">
<path d="M7.02293 41.8829L52.6222 2.9136C56.6646 3.08316 60.878 4.75751 64.652 7.33056M7.02293 41.8829L5.33445 61.4231M7.02293 41.8829C12.5473 41.6891 18.7173 43.507 24.4389 46.6449M44.096 69.4695L76.995 24.6389C76.4736 21.6282 75.0869 18.5581 73.1179 15.7098M44.096 69.4695L23.871 75.2164M44.096 69.4695C43.0118 65.0229 40.5239 60.6988 37.1791 56.843M5.33445 61.4231L3.64598 80.9634L23.871 75.2164M5.33445 61.4231C5.33445 61.4231 11.0477 62.6955 15.735 66.1834C20.4223 69.6713 23.871 75.2164 23.871 75.2164M37.1791 56.843L73.1179 15.7098M37.1791 56.843C33.6662 52.7935 29.2083 49.2606 24.4389 46.6449M73.1179 15.7098C70.8998 12.5013 67.943 9.57425 64.652 7.33056M24.4389 46.6449L64.652 7.33056" stroke="#EFE6FF" stroke-width="5"/>
</svg>
