<svg width="107" height="103" viewBox="0 0 107 103" fill="none" xmlns="http://www.w3.org/2000/svg">
<path d="M54.6556 94.294L103.655 33.9682C103.305 28.7376 101 23.3343 97.5447 18.5291M54.6556 94.294L29.4001 97.1138M54.6556 94.294C54.7278 87.1321 52.1732 79.1991 47.9235 71.8896M17.7227 47.167L74.7258 3.10191C78.6425 3.67975 82.664 5.37659 86.4171 7.83479M17.7227 47.167L10.9336 73.5503M17.7227 47.167C23.5174 48.4274 29.1989 51.51 34.3015 55.7176M29.4001 97.1138L4.14456 99.9335L10.9336 73.5503M29.4001 97.1138C29.4001 97.1138 27.567 89.7548 22.8974 83.7963C18.2278 77.8378 10.9336 73.5503 10.9336 73.5503M34.3015 55.7176L86.4171 7.83479M34.3015 55.7176C39.6605 60.1366 44.381 65.7965 47.9235 71.8896M86.4171 7.83479C90.6449 10.6039 94.532 14.3391 97.5447 18.5291M47.9235 71.8896L97.5447 18.5291" stroke="#EFE6FF" stroke-width="5"/>
</svg>
