<svg width="91" height="97" viewBox="0 0 91 97" fill="none" xmlns="http://www.w3.org/2000/svg">
<path d="M63.6896 46.3341C47.2687 42.0512 37.8053 51.7329 46.5571 58.0301M83.4017 69.8134C80.4827 73.3699 74.6926 76.0787 64.1481 76.068C54.1582 76.0579 48.8869 73.306 46.4766 69.7962M83.4017 69.8134C85.2167 75.8882 83.7204 88.0489 63.707 87.5068C58.7742 87.3732 55.0592 86.5898 52.3025 85.3964M83.4017 69.8134C86.6954 65.8004 85.9392 60.0399 84.6062 56.5203M46.4766 69.7962C43.859 65.9846 44.7966 61.0979 46.5571 58.0301M46.4766 69.7962C44.4038 74.2658 43.8746 81.7478 52.3025 85.3964M18.1937 41.4972C19.823 41.4107 21.2995 41.1624 22.6428 40.7754M52.8091 85.2269C52.6406 85.2844 52.4717 85.3409 52.3025 85.3964M22.6428 40.7754C40.7341 35.5632 34.3047 3.8987 52.0353 4.33395C70.2454 4.78096 55.9738 36.6642 55.9738 36.6642C66.361 34.7227 86.0082 35.8191 87.2134 47.6301C87.5908 51.3283 86.5663 54.2595 84.6062 56.5203M22.6428 40.7754C22.6428 40.7754 20.4855 35.2986 15.3134 35.2106C-3.48522 34.8906 3.43321 90.1418 16.6848 92.4652C26.4933 94.1849 28.8458 86.7069 28.8458 86.7069M28.8458 86.7069C25.9077 85.8962 23.4226 84.6466 21.3758 82.9911M28.8458 86.7069C35.192 88.4579 44.1283 88.0784 52.3025 85.3964M84.6062 56.5203C76.7243 65.611 55.8162 64.6923 46.5571 58.0301" stroke="#FFBB32" stroke-width="7"/>
</svg>
