<svg width="117" height="65" viewBox="0 0 117 65" fill="none" xmlns="http://www.w3.org/2000/svg">
<path d="M84.1995 19.9432C77.2386 14.1371 65.3176 14.6141 59.4777 22.5212C58.9647 23.2157 58.5023 23.915 58.0904 24.6173M84.1995 19.9432C91.1603 25.7492 92.9196 36.6481 86.1496 44.7682C79.3796 52.8883 68.1106 52.2359 61.2369 45.5898C54.967 39.5275 53.8126 31.9098 58.0904 24.6173M84.1995 19.9432L112.684 3.6671M40.2541 29.6482C35.8553 26.6969 30.2981 25.8938 25.2605 27.5163C20.0916 29.1811 15.8769 33.5548 14.0938 38.7636M40.2541 29.6482C43.3903 31.7522 45.9377 34.9482 47.2883 39.1353C50.5334 49.1957 43.9579 58.3695 34.6653 60.6261C25.3727 62.8828 17.7866 58.945 14.2244 49.7844C12.796 46.1113 12.9002 42.2503 14.0938 38.7636M40.2541 29.6482L58.0904 24.6173M14.0938 38.7636L4.42989 39.6166" stroke="#FE9683" stroke-width="7" stroke-linecap="round" stroke-linejoin="round"/>
</svg>
