<svg width="89" height="80" viewBox="0 0 89 80" fill="none" xmlns="http://www.w3.org/2000/svg">
<path d="M67.7038 35.8048L85.9618 28.2343M74.0861 41.0428L84.1128 41.2856M26.3749 51.2036L2.74925 61.2981M17.4734 46.5021L6.83964 47.1558M59.4919 59.3399L70.0888 71.7351M51.2402 20.5933L58.2247 2.53603M45.9325 14.5127L44.3384 7.02756M29.1435 28.9813L14.42 17.9251M40.7574 64.9406L37.3567 76.9415M55.4953 40.5735L68.2723 49.7157L51.3897 49.773L50.2749 64.3712L43.3088 51.4939L33.1514 57.1953L36.6659 45.7282L20.456 38.7739L37.4939 36.3942L36.9246 16.4311L47.4389 31.2219L62.101 24.8058L55.4953 40.5735Z" stroke="#FF8E32" stroke-width="5" stroke-linecap="round" stroke-linejoin="round"/>
</svg>
