<svg width="409" height="250" viewBox="0 0 409 250" fill="none" xmlns="http://www.w3.org/2000/svg">
<path d="M25.865 171.097C59.5092 205.486 127.468 222.626 222.539 207.619C349.162 187.632 431.833 110.289 399.375 45.0815C374.328 -5.23813 274.057 -5.45236 185.444 16.1452M25.865 171.097C14.699 159.684 7.31271 146.372 3.9693 131.704C-7.13202 83.0011 52.2248 17.3049 185.444 16.1452M25.865 171.097C9.76108 124.934 40.1165 71.4209 112.105 40.3099C134.031 30.8343 159.227 22.5351 185.444 16.1452M25.865 171.097C31.2443 186.517 41.8075 201.117 57.7344 213.788C104.967 251.365 217.989 260.939 318.714 220.137M185.444 16.1452C213.238 15.9033 244.247 18.4704 278.501 24.587" stroke="#B7B0FF" stroke-width="5"/>
</svg>
