<svg width="278" height="312" viewBox="0 0 278 312" fill="none" xmlns="http://www.w3.org/2000/svg">
<path d="M136.834 70.9284L122.973 4M161.668 53.1883L170.62 19.5897M161.668 221.181L180.727 308M136.834 247.791L130.77 284.078M218.845 115.471L274 88.6684M66.3743 115.471L4 78.992M39.2299 128.987H9.7754M80.2353 195.915L26.8128 237.577M224.909 182.591L267.358 202.654M144.998 115.471L189.655 78.992L176.337 135.898L230.396 150.125L176.337 164.352L189.655 202.654L149.307 182.591L110.134 232.202L114.834 173.106L39.2299 160.704L103.337 135.898L90.9387 81.9103L144.998 115.471Z" stroke="#D1B7FF" stroke-opacity="0.45" stroke-width="7" stroke-linecap="round" stroke-linejoin="round"/>
</svg>
